<?xml version="1.0" encoding="UTF-8"?>
<svg id="Layer_2" data-name="Layer 2" xmlns="http://www.w3.org/2000/svg" viewBox="0 0 612.27 653.28">
  <defs>
    <style>
      .cls-1 {
        fill: #231f20;
      }
    </style>
  </defs>
  <g id="Layer_1-2" data-name="Layer 1">
    <g>
      <path class="cls-1" d="m16.41,210c15.54-44.9,80.02-53.54,107.65-35.12,31.66,20.72-21.88,104.77,6.33,104.77,23.6,0,36.84-31.66,36.84-69.66v-77.14c0-39.15-17.27-54.11-17.27-85.78,0-25.33,23.03-34.54,59.87-34.54s59.87,9.21,59.87,34.54c0,31.66-17.85,46.63-17.85,85.78v93.26c0,50.66-48.36,82.32-115.71,82.32-86.93,0-135.28-53.54-119.74-98.44Z"/>
      <path class="cls-1" d="m305.38,260.2c8.06-25.91,43.75-40.87,55.26-73.69l28.78-77.72c10.94-30.51,2.3-50.08,13.82-78.29,8.63-21.87,28.78-30.51,52.96-30.51,55.26,0,72.53,81.17,86.35,120.31l19.57,55.84c13.82,39.15,36.84,54.11,48.36,85.77,8.63,25.33-14.97,33.97-51.81,33.97s-63.32-8.64-71.96-33.97c-6.91-19.57-5.18-32.81-5.76-48.93h-96.14c-2.3,20.15,31.09,33.39,27.06,55.84-2.88,17.27-24.75,27.06-60.45,27.06-25.9,0-54.69-10.36-46.05-35.69Zm86.93-75.99h84.05l-22.45-63.9c-13.81-43.75-27.06-29.93-35.12-10.36l-26.48,74.26Z"/>
      <path class="cls-1" d="m17.27,527.13v-55.84c0-39.15-17.27-54.11-17.27-86.35,0-24.75,23.03-33.96,59.87-33.96s59.87,9.21,59.87,33.96c0,32.24-17.85,47.21-17.85,86.35v11.51l29.36-21.88c29.94-30.51,12.09-59.87,28.78-80.59,14.39-17.27,37.42-29.36,75.99-29.36,41.45,0,56.42,23.6,29.94,47.21-25.91,23.03-67.93,39.72-101.32,69.66,52.96-6.91,101.32,25.33,101.32,78.87,0,21.3,17.27,41.45,17.27,66.2s-23.03,33.97-59.87,33.97-59.87-8.64-59.87-33.97,17.85-50.08,17.85-66.2c0-63.32-78.87-67.93-78.87-14.97,0,35.69,17.27,50.66,17.27,81.17,0,25.33-23.03,33.97-59.87,33.97S0,638.23,0,612.9c0-31.66,17.27-46.63,17.27-85.77Z"/>
      <path class="cls-1" d="m346.42,471c0-39.15-17.27-54.11-17.27-85.78,0-25.33,22.45-33.96,58.72-34.54h60.44c36.84,0,54.69-1.73,66.2-4.03,85.2-17.85,87.5,84.05,46.63,84.05-38,0-52.96-50.66-90.96-50.66-22.45,0-39.14,9.21-39.14,33.39v65.63h19.57c27.63,0,43.18-24.75,69.66-24.75,22.45,0,24.18,16.12,24.18,39.15s-1.73,39.72-24.18,39.72c-26.48,0-42.03-25.33-69.66-25.33h-19.57v76.57c0,24.18,16.69,33.39,39.14,33.39,38,0,52.96-50.66,90.96-50.66,40.87,0,38.57,101.89-46.63,84.05-11.51-2.3-29.36-4.6-66.2-4.6h-60.44c-36.27,0-58.72-9.21-58.72-33.97,0-31.66,17.27-46.63,17.27-85.77v-55.84Z"/>
    </g>
  </g>
</svg>